<svg xmlns="http://www.w3.org/2000/svg" xmlns:xlink="http://www.w3.org/1999/xlink" width="1280" zoomAndPan="magnify" viewBox="0 0 960 525.000007" height="700" preserveAspectRatio="xMidYMid meet" version="1.2"><defs><clipPath id="c521222ecb"><path d="M 215 170 L 387 170 L 387 249.273438 L 215 249.273438 Z M 215 170 "/></clipPath><clipPath id="722ff11ba1"><path d="M 573 170 L 745 170 L 745 249.273438 L 573 249.273438 Z M 573 170 "/></clipPath><clipPath id="5298c2b28a"><path d="M 24 0.648438 L 40 0.648438 L 40 18.398438 L 24 18.398438 Z M 24 0.648438 "/></clipPath><clipPath id="442039a5b4"><path d="M 24 0.648438 L 40.84375 0.648438 L 40.84375 18.398438 L 24 18.398438 Z M 24 0.648438 "/></clipPath><clipPath id="f44ccc363c"><path d="M 12 0.648438 L 28 0.648438 L 28 18.398438 L 12 18.398438 Z M 12 0.648438 "/></clipPath><clipPath id="294b65b9a2"><path d="M 12 0.648438 L 29 0.648438 L 29 18.398438 L 12 18.398438 Z M 12 0.648438 "/></clipPath><clipPath id="2327b55e37"><path d="M 0.574219 0.648438 L 17 0.648438 L 17 18.398438 L 0.574219 18.398438 Z M 0.574219 0.648438 "/></clipPath><clipPath id="6dd27915d4"><path d="M 856 0.433594 L 872 0.433594 L 872 18 L 856 18 Z M 856 0.433594 "/></clipPath><clipPath id="71c14ce62c"><path d="M 855.128906 0.433594 L 872 0.433594 L 872 18.300781 L 855.128906 18.300781 Z M 855.128906 0.433594 "/></clipPath><clipPath id="bb3c452718"><path d="M 868 0.433594 L 884 0.433594 L 884 18 L 868 18 Z M 868 0.433594 "/></clipPath><clipPath id="bee0e8bbba"><path d="M 867 0.433594 L 884 0.433594 L 884 18.300781 L 867 18.300781 Z M 867 0.433594 "/></clipPath><clipPath id="2115e143d1"><path d="M 879 0.433594 L 895.398438 0.433594 L 895.398438 18 L 879 18 Z M 879 0.433594 "/></clipPath><clipPath id="64e92bd83f"><path d="M 879 0.433594 L 895.398438 0.433594 L 895.398438 18.300781 L 879 18.300781 Z M 879 0.433594 "/></clipPath><clipPath id="901fa4d2ee"><rect x="0" width="896" y="0" height="19"/></clipPath><clipPath id="3d8d416549"><path d="M 435.285156 207 L 464.476562 207 L 464.476562 236.171875 L 435.285156 236.171875 Z M 435.285156 207 "/></clipPath><clipPath id="a4edc3f491"><rect x="0" width="798" y="0" height="191"/></clipPath><clipPath id="8bbd9f69f5"><path d="M 500.296875 207 L 529.488281 207 L 529.488281 236.171875 L 500.296875 236.171875 Z M 500.296875 207 "/></clipPath></defs><g id="1152bea849"><path style=" stroke:none;fill-rule:nonzero;fill:#1f48ff;fill-opacity:1;" d="M 717.515625 137.414062 L 732.058594 126.777344 C 784.480469 124.082031 778.082031 100.992188 778.082031 100.992188 L 731.441406 100.992188 L 725.660156 116.882812 C 717.917969 122.242188 708.898438 132.53125 704.464844 137.855469 C 704.417969 137.855469 704.378906 137.867188 704.324219 137.867188 C 704.324219 137.867188 663.863281 87.777344 633.734375 73.75 C 603.605469 59.703125 526.402344 53.105469 482.246094 53.527344 C 457.636719 53.746094 423.265625 52.566406 389.457031 55.90625 C 403.667969 88.535156 475.542969 117.464844 423.4375 102.148438 C 384.070312 90.589844 382.050781 68.726562 384.40625 56.625 C 351.859375 96.789062 477.9375 143.132812 419.46875 144.746094 C 359.488281 146.398438 279.960938 136.910156 279.960938 136.910156 C 295.699219 89.363281 342.761719 67.371094 369.023438 58.546875 C 349.398438 61.765625 330.714844 66.96875 315.066406 75.398438 C 274.605469 97.214844 256.035156 125.320312 251.4375 133.144531 C 251.4375 133.144531 251.4375 133.144531 251.4375 133.148438 C 246.660156 127.746094 240.105469 120.917969 234.28125 116.882812 L 228.503906 100.988281 L 181.859375 100.988281 C 181.859375 100.988281 175.460938 124.078125 227.882812 126.773438 L 244.292969 138.777344 L 244.289062 138.777344 C 234.035156 137.761719 206.769531 135.8125 182.980469 140.613281 C 182.980469 140.613281 296.074219 154.640625 352.207031 200.035156 C 351.800781 199.4375 338.488281 180.226562 305.992188 161.800781 C 305.992188 161.800781 496.976562 188.222656 647.21875 159.054688 C 647.21875 159.054688 607.617188 182.15625 599.355469 198.113281 C 600.917969 197.203125 710.585938 133.277344 776.972656 145.574219 C 776.960938 145.574219 746.351562 137.722656 717.515625 137.414062 Z M 717.515625 137.414062 "/><g clip-rule="nonzero" clip-path="url(#c521222ecb)"><path style=" stroke:none;fill-rule:nonzero;fill:#1f48ff;fill-opacity:1;" d="M 215.226562 170.132812 L 285.394531 182.101562 C 289.488281 182.796875 292.988281 185.449219 294.761719 189.203125 L 306.976562 214.988281 C 308.734375 218.695312 312.164062 221.324219 316.199219 222.066406 L 386.410156 234.871094 L 305.484375 248.988281 C 302.949219 249.429688 300.339844 249.09375 298.003906 248.027344 L 225.589844 214.933594 C 221.421875 213.027344 218.589844 209.019531 218.199219 204.445312 Z M 215.226562 170.132812 "/></g><g clip-rule="nonzero" clip-path="url(#722ff11ba1)"><path style=" stroke:none;fill-rule:nonzero;fill:#1f48ff;fill-opacity:1;" d="M 744.710938 170.132812 L 674.542969 182.101562 C 670.449219 182.796875 666.949219 185.449219 665.175781 189.203125 L 652.960938 214.988281 C 651.203125 218.695312 647.773438 221.324219 643.738281 222.066406 L 573.527344 234.871094 L 654.453125 248.988281 C 656.988281 249.429688 659.597656 249.09375 661.933594 248.027344 L 734.351562 214.9375 C 738.523438 213.03125 741.351562 209.027344 741.742188 204.449219 Z M 744.710938 170.132812 "/></g><g transform="matrix(1,0,0,1,32,402)"><g clip-path="url(#901fa4d2ee)"><g clip-rule="nonzero" clip-path="url(#5298c2b28a)"><path style=" stroke:none;fill-rule:nonzero;fill:#1f48ff;fill-opacity:1;" d="M 31.382812 0.957031 L 39.945312 9.527344 L 31.378906 18.105469 L 24.640625 18.09375 L 33.210938 9.523438 L 24.640625 0.957031 Z M 31.382812 0.957031 "/></g><g clip-rule="nonzero" clip-path="url(#442039a5b4)"><path style=" stroke:none;fill-rule:nonzero;fill:#1f48ff;fill-opacity:1;" d="M 31.253906 1.082031 C 31.332031 1.15625 31.40625 1.234375 31.484375 1.3125 C 31.691406 1.519531 31.898438 1.726562 32.105469 1.933594 C 32.414062 2.242188 32.722656 2.550781 33.027344 2.859375 C 33.402344 3.234375 33.777344 3.609375 34.152344 3.984375 C 34.566406 4.394531 34.976562 4.804688 35.386719 5.214844 C 35.796875 5.628906 36.214844 6.046875 36.628906 6.460938 L 37.789062 7.621094 C 38.113281 7.945312 38.441406 8.273438 38.765625 8.597656 C 39 8.832031 39.234375 9.066406 39.472656 9.304688 C 39.582031 9.414062 39.6875 9.535156 39.804688 9.636719 C 39.8125 9.644531 39.816406 9.648438 39.820312 9.652344 L 39.820312 9.402344 C 39.746094 9.476562 39.667969 9.554688 39.589844 9.628906 C 39.382812 9.835938 39.175781 10.046875 38.96875 10.253906 C 38.660156 10.558594 38.355469 10.867188 38.046875 11.175781 C 37.671875 11.550781 37.296875 11.929688 36.917969 12.304688 C 36.507812 12.71875 36.097656 13.128906 35.6875 13.539062 C 35.277344 13.949219 34.859375 14.367188 34.445312 14.785156 C 34.058594 15.171875 33.671875 15.558594 33.285156 15.945312 C 32.957031 16.269531 32.632812 16.597656 32.304688 16.925781 C 32.070312 17.160156 31.835938 17.394531 31.601562 17.628906 C 31.488281 17.742188 31.371094 17.847656 31.265625 17.964844 C 31.261719 17.96875 31.257812 17.972656 31.25 17.980469 L 31.378906 17.925781 C 31.15625 17.925781 30.933594 17.925781 30.710938 17.925781 C 30.171875 17.925781 29.632812 17.925781 29.097656 17.921875 C 28.449219 17.921875 27.800781 17.921875 27.152344 17.917969 C 26.59375 17.917969 26.03125 17.917969 25.472656 17.917969 L 24.917969 17.914062 C 24.828125 17.914062 24.738281 17.910156 24.652344 17.914062 C 24.648438 17.914062 24.644531 17.914062 24.640625 17.914062 L 24.765625 18.21875 C 24.84375 18.144531 24.917969 18.066406 24.996094 17.992188 C 25.203125 17.785156 25.414062 17.574219 25.621094 17.367188 C 25.925781 17.0625 26.234375 16.753906 26.542969 16.445312 C 26.917969 16.070312 27.292969 15.695312 27.667969 15.320312 C 28.078125 14.910156 28.488281 14.5 28.902344 14.089844 C 29.3125 13.679688 29.730469 13.257812 30.144531 12.84375 C 30.53125 12.457031 30.917969 12.070312 31.304688 11.683594 C 31.632812 11.359375 31.957031 11.03125 32.28125 10.707031 L 32.988281 10 C 33.101562 9.890625 33.214844 9.78125 33.324219 9.667969 C 33.328125 9.660156 33.332031 9.65625 33.339844 9.652344 C 33.40625 9.582031 33.40625 9.46875 33.339844 9.398438 C 33.261719 9.324219 33.1875 9.246094 33.109375 9.171875 L 32.488281 8.546875 C 32.179688 8.238281 31.871094 7.933594 31.5625 7.625 C 31.1875 7.25 30.8125 6.875 30.4375 6.5 C 30.027344 6.089844 29.617188 5.675781 29.207031 5.265625 C 28.796875 4.855469 28.378906 4.4375 27.960938 4.023438 C 27.574219 3.636719 27.1875 3.25 26.800781 2.863281 L 25.824219 1.886719 L 25.121094 1.179688 C 25.007812 1.070312 24.902344 0.949219 24.785156 0.84375 C 24.78125 0.839844 24.773438 0.835938 24.769531 0.832031 L 24.644531 1.136719 L 30.550781 1.136719 C 30.824219 1.136719 31.097656 1.144531 31.371094 1.136719 C 31.375 1.136719 31.378906 1.136719 31.382812 1.136719 C 31.613281 1.136719 31.613281 0.777344 31.382812 0.777344 L 25.476562 0.777344 C 25.203125 0.777344 24.925781 0.765625 24.65625 0.777344 C 24.652344 0.777344 24.648438 0.777344 24.644531 0.777344 C 24.488281 0.777344 24.40625 0.972656 24.515625 1.082031 C 24.59375 1.160156 24.667969 1.234375 24.746094 1.3125 C 24.953125 1.519531 25.160156 1.726562 25.371094 1.933594 C 25.675781 2.242188 25.984375 2.550781 26.292969 2.859375 L 27.417969 3.984375 C 27.828125 4.394531 28.238281 4.804688 28.648438 5.214844 L 29.894531 6.460938 C 30.28125 6.847656 30.667969 7.234375 31.054688 7.621094 C 31.378906 7.945312 31.703125 8.269531 32.03125 8.597656 C 32.265625 8.832031 32.5 9.066406 32.734375 9.300781 C 32.847656 9.414062 32.953125 9.53125 33.070312 9.636719 C 33.078125 9.640625 33.082031 9.644531 33.085938 9.652344 L 33.085938 9.398438 C 33.007812 9.476562 32.933594 9.550781 32.855469 9.628906 C 32.648438 9.835938 32.441406 10.042969 32.234375 10.25 L 31.308594 11.171875 L 30.183594 12.300781 C 29.773438 12.710938 29.363281 13.121094 28.953125 13.53125 C 28.539062 13.941406 28.121094 14.359375 27.707031 14.777344 C 27.320312 15.164062 26.933594 15.550781 26.546875 15.9375 L 25.570312 16.910156 L 24.863281 17.617188 C 24.753906 17.730469 24.636719 17.839844 24.527344 17.953125 C 24.523438 17.957031 24.519531 17.960938 24.515625 17.96875 C 24.40625 18.078125 24.484375 18.273438 24.640625 18.273438 C 25.054688 18.273438 25.46875 18.273438 25.886719 18.277344 C 26.753906 18.277344 27.621094 18.277344 28.488281 18.28125 C 29.261719 18.28125 30.039062 18.28125 30.8125 18.285156 C 30.988281 18.285156 31.164062 18.285156 31.34375 18.285156 C 31.441406 18.285156 31.5 18.238281 31.566406 18.171875 C 31.847656 17.890625 32.128906 17.605469 32.414062 17.324219 L 33.96875 15.765625 C 34.605469 15.128906 35.238281 14.496094 35.875 13.859375 C 36.503906 13.230469 37.132812 12.597656 37.761719 11.96875 C 38.261719 11.464844 38.765625 10.964844 39.265625 10.460938 C 39.523438 10.203125 39.78125 9.945312 40.039062 9.6875 C 40.050781 9.675781 40.0625 9.664062 40.074219 9.652344 C 40.140625 9.585938 40.140625 9.46875 40.074219 9.402344 C 39.996094 9.324219 39.921875 9.25 39.84375 9.171875 L 39.222656 8.546875 C 38.914062 8.242188 38.605469 7.933594 38.300781 7.625 C 37.925781 7.25 37.550781 6.875 37.175781 6.5 C 36.761719 6.089844 36.351562 5.679688 35.941406 5.265625 C 35.53125 4.855469 35.113281 4.4375 34.699219 4.023438 C 34.3125 3.636719 33.925781 3.25 33.539062 2.863281 L 31.855469 1.179688 C 31.746094 1.070312 31.636719 0.953125 31.523438 0.84375 C 31.515625 0.839844 31.511719 0.835938 31.507812 0.828125 C 31.34375 0.667969 31.089844 0.917969 31.253906 1.082031 Z M 31.253906 1.082031 "/></g><g clip-rule="nonzero" clip-path="url(#f44ccc363c)"><path style=" stroke:none;fill-rule:nonzero;fill:#1f48ff;fill-opacity:1;" d="M 19.328125 0.957031 L 27.894531 9.527344 L 19.324219 18.105469 L 12.589844 18.09375 L 21.160156 9.523438 L 12.589844 0.957031 Z M 19.328125 0.957031 "/></g><g clip-rule="nonzero" clip-path="url(#294b65b9a2)"><path style=" stroke:none;fill-rule:nonzero;fill:#1f48ff;fill-opacity:1;" d="M 19.203125 1.082031 C 19.277344 1.15625 19.355469 1.234375 19.429688 1.3125 L 20.054688 1.933594 L 20.976562 2.859375 L 22.101562 3.984375 C 22.511719 4.394531 22.921875 4.804688 23.332031 5.214844 L 24.578125 6.460938 C 24.964844 6.847656 25.351562 7.234375 25.738281 7.621094 C 26.0625 7.945312 26.386719 8.273438 26.710938 8.597656 C 26.949219 8.832031 27.183594 9.066406 27.417969 9.304688 C 27.527344 9.414062 27.636719 9.535156 27.753906 9.636719 C 27.757812 9.644531 27.761719 9.648438 27.769531 9.652344 L 27.769531 9.402344 C 27.691406 9.476562 27.617188 9.554688 27.539062 9.628906 L 26.917969 10.253906 C 26.609375 10.558594 26.300781 10.867188 25.996094 11.175781 L 24.867188 12.304688 L 23.636719 13.539062 C 23.222656 13.953125 22.804688 14.367188 22.390625 14.785156 L 21.234375 15.945312 L 20.253906 16.925781 L 19.546875 17.628906 C 19.4375 17.742188 19.316406 17.847656 19.214844 17.964844 C 19.210938 17.96875 19.203125 17.972656 19.199219 17.980469 L 19.324219 17.925781 C 19.101562 17.925781 18.878906 17.925781 18.65625 17.925781 C 18.121094 17.925781 17.582031 17.925781 17.042969 17.921875 C 16.394531 17.921875 15.75 17.921875 15.101562 17.917969 C 14.539062 17.917969 13.980469 17.917969 13.417969 17.917969 L 12.863281 17.914062 C 12.777344 17.914062 12.6875 17.910156 12.601562 17.914062 C 12.597656 17.914062 12.59375 17.914062 12.589844 17.914062 L 12.714844 18.21875 C 12.789062 18.144531 12.867188 18.066406 12.945312 17.992188 L 13.566406 17.367188 L 14.492188 16.445312 C 14.867188 16.070312 15.242188 15.695312 15.617188 15.320312 C 16.027344 14.910156 16.4375 14.5 16.847656 14.089844 C 17.261719 13.679688 17.679688 13.257812 18.09375 12.84375 L 19.253906 11.683594 C 19.578125 11.359375 19.90625 11.03125 20.230469 10.707031 C 20.464844 10.472656 20.699219 10.238281 20.9375 10 C 21.046875 9.890625 21.164062 9.78125 21.273438 9.667969 C 21.277344 9.660156 21.28125 9.65625 21.285156 9.652344 C 21.355469 9.582031 21.355469 9.46875 21.285156 9.398438 C 21.210938 9.324219 21.132812 9.246094 21.058594 9.171875 C 20.851562 8.960938 20.640625 8.753906 20.433594 8.546875 L 19.511719 7.625 C 19.136719 7.25 18.761719 6.875 18.386719 6.5 L 17.15625 5.265625 C 16.738281 4.851562 16.324219 4.4375 15.910156 4.023438 C 15.523438 3.636719 15.136719 3.25 14.75 2.863281 L 13.066406 1.179688 C 12.957031 1.070312 12.847656 0.949219 12.734375 0.84375 C 12.726562 0.839844 12.722656 0.835938 12.71875 0.832031 L 12.589844 1.136719 L 18.5 1.136719 C 18.769531 1.136719 19.046875 1.144531 19.316406 1.136719 C 19.324219 1.136719 19.324219 1.136719 19.332031 1.136719 C 19.558594 1.136719 19.5625 0.777344 19.332031 0.777344 L 13.421875 0.777344 C 13.148438 0.777344 12.875 0.765625 12.601562 0.777344 C 12.597656 0.777344 12.59375 0.777344 12.589844 0.777344 C 12.4375 0.777344 12.355469 0.972656 12.464844 1.082031 C 12.542969 1.160156 12.617188 1.234375 12.695312 1.3125 L 13.316406 1.933594 L 14.238281 2.859375 L 15.363281 3.984375 C 15.777344 4.394531 16.1875 4.804688 16.597656 5.214844 L 17.839844 6.460938 L 19.976562 8.597656 C 20.214844 8.832031 20.449219 9.066406 20.683594 9.300781 C 20.796875 9.414062 20.902344 9.53125 21.019531 9.636719 C 21.023438 9.640625 21.027344 9.644531 21.035156 9.652344 L 21.035156 9.398438 C 20.957031 9.476562 20.882812 9.550781 20.804688 9.628906 C 20.597656 9.835938 20.386719 10.042969 20.179688 10.25 C 19.871094 10.558594 19.566406 10.867188 19.257812 11.171875 C 18.882812 11.546875 18.507812 11.925781 18.132812 12.300781 C 17.722656 12.710938 17.308594 13.121094 16.898438 13.53125 C 16.484375 13.945312 16.070312 14.359375 15.65625 14.777344 C 15.269531 15.164062 14.882812 15.550781 14.496094 15.9375 C 14.167969 16.261719 13.84375 16.585938 13.519531 16.910156 L 12.8125 17.617188 C 12.699219 17.730469 12.585938 17.839844 12.476562 17.953125 C 12.472656 17.957031 12.46875 17.960938 12.460938 17.96875 C 12.351562 18.078125 12.433594 18.273438 12.589844 18.273438 C 13.003906 18.273438 13.417969 18.273438 13.832031 18.277344 C 14.699219 18.277344 15.566406 18.277344 16.433594 18.28125 C 17.210938 18.28125 17.984375 18.28125 18.761719 18.285156 C 18.9375 18.285156 19.113281 18.285156 19.289062 18.285156 C 19.390625 18.285156 19.449219 18.238281 19.515625 18.171875 C 19.796875 17.890625 20.078125 17.605469 20.359375 17.324219 C 20.878906 16.804688 21.398438 16.285156 21.917969 15.765625 L 23.820312 13.859375 C 24.449219 13.230469 25.078125 12.597656 25.707031 11.96875 C 26.210938 11.464844 26.710938 10.964844 27.214844 10.460938 C 27.472656 10.203125 27.730469 9.945312 27.988281 9.6875 L 28.019531 9.652344 C 28.089844 9.585938 28.089844 9.46875 28.019531 9.402344 C 27.945312 9.324219 27.867188 9.25 27.792969 9.171875 L 26.246094 7.625 C 25.871094 7.25 25.496094 6.875 25.121094 6.5 C 24.710938 6.089844 24.300781 5.679688 23.890625 5.265625 C 23.480469 4.855469 23.0625 4.4375 22.644531 4.023438 C 22.257812 3.636719 21.871094 3.25 21.484375 2.863281 C 21.160156 2.535156 20.835938 2.210938 20.511719 1.886719 L 19.804688 1.179688 C 19.695312 1.070312 19.585938 0.953125 19.46875 0.84375 C 19.464844 0.839844 19.460938 0.835938 19.457031 0.828125 C 19.292969 0.667969 19.039062 0.917969 19.203125 1.082031 Z M 19.203125 1.082031 "/></g><g clip-rule="nonzero" clip-path="url(#2327b55e37)"><path style=" stroke:none;fill-rule:nonzero;fill:#1f48ff;fill-opacity:1;" d="M 7.550781 0.957031 L 16.117188 9.527344 L 7.546875 18.105469 L 0.808594 18.09375 L 9.378906 9.523438 L 0.8125 0.957031 Z M 7.550781 0.957031 "/><path style=" stroke:none;fill-rule:nonzero;fill:#1f48ff;fill-opacity:1;" d="M 7.425781 1.082031 C 7.5 1.15625 7.578125 1.234375 7.652344 1.3125 L 8.277344 1.933594 L 9.199219 2.859375 C 9.574219 3.234375 9.949219 3.609375 10.324219 3.984375 C 10.734375 4.394531 11.144531 4.804688 11.554688 5.214844 L 13.960938 7.621094 C 14.285156 7.945312 14.609375 8.273438 14.933594 8.597656 C 15.171875 8.832031 15.40625 9.066406 15.640625 9.304688 C 15.75 9.414062 15.859375 9.535156 15.976562 9.636719 C 15.980469 9.644531 15.984375 9.648438 15.988281 9.652344 L 15.988281 9.402344 C 15.914062 9.476562 15.835938 9.554688 15.761719 9.628906 L 15.136719 10.253906 C 14.832031 10.558594 14.523438 10.867188 14.21875 11.175781 C 13.839844 11.550781 13.464844 11.929688 13.089844 12.304688 C 12.679688 12.71875 12.265625 13.128906 11.855469 13.539062 L 10.613281 14.785156 C 10.226562 15.171875 9.839844 15.558594 9.453125 15.945312 C 9.128906 16.269531 8.800781 16.597656 8.476562 16.925781 C 8.242188 17.160156 8.003906 17.394531 7.769531 17.628906 C 7.660156 17.742188 7.539062 17.847656 7.4375 17.964844 C 7.429688 17.96875 7.425781 17.972656 7.421875 17.980469 L 7.546875 17.925781 C 7.324219 17.925781 7.101562 17.925781 6.878906 17.925781 C 6.34375 17.925781 5.804688 17.925781 5.265625 17.921875 C 4.617188 17.921875 3.96875 17.921875 3.324219 17.917969 C 2.761719 17.917969 2.203125 17.917969 1.640625 17.917969 L 1.085938 17.914062 C 1 17.914062 0.910156 17.910156 0.824219 17.914062 C 0.816406 17.914062 0.8125 17.914062 0.808594 17.914062 L 0.9375 18.21875 C 1.011719 18.144531 1.089844 18.066406 1.167969 17.992188 C 1.375 17.785156 1.582031 17.574219 1.789062 17.367188 L 2.710938 16.445312 C 3.089844 16.070312 3.464844 15.695312 3.839844 15.320312 C 4.25 14.910156 4.660156 14.5 5.070312 14.089844 C 5.484375 13.679688 5.902344 13.257812 6.316406 12.84375 L 8.453125 10.707031 C 8.6875 10.472656 8.921875 10.238281 9.160156 10 C 9.269531 9.890625 9.382812 9.78125 9.492188 9.667969 C 9.5 9.660156 9.503906 9.65625 9.507812 9.652344 C 9.578125 9.582031 9.578125 9.46875 9.507812 9.398438 C 9.433594 9.324219 9.355469 9.246094 9.28125 9.171875 L 8.65625 8.546875 C 8.347656 8.238281 8.042969 7.933594 7.734375 7.625 C 7.359375 7.25 6.984375 6.875 6.609375 6.5 L 4.132812 4.023438 C 3.746094 3.636719 3.359375 3.25 2.972656 2.863281 C 2.648438 2.535156 2.320312 2.210938 1.996094 1.886719 L 1.289062 1.179688 C 1.175781 1.066406 1.070312 0.949219 0.953125 0.84375 C 0.949219 0.839844 0.945312 0.835938 0.9375 0.828125 L 0.8125 1.132812 L 6.71875 1.132812 C 6.992188 1.132812 7.265625 1.144531 7.539062 1.132812 C 7.542969 1.132812 7.546875 1.132812 7.550781 1.132812 C 7.78125 1.132812 7.78125 0.777344 7.550781 0.777344 L 1.644531 0.777344 C 1.371094 0.777344 1.097656 0.765625 0.824219 0.777344 C 0.820312 0.777344 0.816406 0.777344 0.8125 0.777344 C 0.65625 0.777344 0.578125 0.972656 0.6875 1.082031 C 0.761719 1.15625 0.839844 1.234375 0.914062 1.308594 L 2.460938 2.855469 C 2.835938 3.230469 3.210938 3.605469 3.585938 3.980469 L 4.816406 5.214844 C 5.234375 5.628906 5.648438 6.042969 6.0625 6.457031 C 6.449219 6.84375 6.835938 7.230469 7.222656 7.617188 C 7.546875 7.945312 7.871094 8.269531 8.199219 8.59375 L 8.90625 9.300781 C 9.015625 9.410156 9.121094 9.53125 9.238281 9.636719 C 9.246094 9.640625 9.25 9.644531 9.253906 9.652344 L 9.253906 9.398438 C 9.179688 9.472656 9.101562 9.550781 9.023438 9.625 L 8.402344 10.25 L 7.476562 11.171875 C 7.101562 11.546875 6.726562 11.921875 6.351562 12.296875 C 5.941406 12.707031 5.53125 13.121094 5.121094 13.53125 L 3.875 14.773438 C 3.488281 15.160156 3.101562 15.546875 2.714844 15.933594 C 2.390625 16.261719 2.0625 16.585938 1.738281 16.910156 C 1.503906 17.144531 1.269531 17.382812 1.03125 17.617188 C 0.921875 17.726562 0.804688 17.835938 0.695312 17.953125 C 0.691406 17.957031 0.6875 17.960938 0.683594 17.964844 C 0.574219 18.078125 0.652344 18.273438 0.808594 18.273438 C 1.222656 18.273438 1.640625 18.273438 2.054688 18.273438 C 2.921875 18.277344 3.789062 18.277344 4.65625 18.277344 C 5.429688 18.28125 6.207031 18.28125 6.980469 18.28125 C 7.15625 18.28125 7.335938 18.285156 7.511719 18.285156 C 7.609375 18.285156 7.667969 18.234375 7.734375 18.171875 L 8.582031 17.320312 C 9.101562 16.800781 9.617188 16.285156 10.136719 15.761719 C 10.773438 15.128906 11.40625 14.492188 12.039062 13.859375 C 12.671875 13.226562 13.300781 12.597656 13.929688 11.96875 C 14.429688 11.464844 14.933594 10.960938 15.433594 10.460938 C 15.691406 10.203125 15.949219 9.945312 16.207031 9.6875 C 16.21875 9.675781 16.230469 9.664062 16.242188 9.652344 C 16.308594 9.585938 16.308594 9.46875 16.242188 9.398438 C 16.164062 9.324219 16.089844 9.246094 16.011719 9.171875 L 13.339844 6.5 C 12.929688 6.085938 12.519531 5.675781 12.109375 5.265625 C 11.695312 4.851562 11.28125 4.4375 10.867188 4.019531 C 10.480469 3.632812 10.09375 3.246094 9.707031 2.859375 L 8.730469 1.886719 L 8.023438 1.179688 C 7.914062 1.066406 7.804688 0.953125 7.691406 0.84375 C 7.683594 0.839844 7.679688 0.832031 7.675781 0.828125 C 7.511719 0.664062 7.257812 0.917969 7.421875 1.082031 Z M 7.425781 1.082031 "/></g><g clip-rule="nonzero" clip-path="url(#6dd27915d4)"><path style=" stroke:none;fill-rule:nonzero;fill:#1f48ff;fill-opacity:1;" d="M 864.589844 17.996094 L 856.023438 9.421875 L 864.59375 0.84375 L 871.332031 0.855469 L 862.761719 9.425781 L 871.328125 17.996094 Z M 864.589844 17.996094 "/></g><g clip-rule="nonzero" clip-path="url(#71c14ce62c)"><path style=" stroke:none;fill-rule:nonzero;fill:#1f48ff;fill-opacity:1;" d="M 864.71875 17.867188 C 864.640625 17.792969 864.566406 17.714844 864.488281 17.636719 C 864.28125 17.429688 864.074219 17.222656 863.863281 17.015625 C 863.558594 16.707031 863.25 16.398438 862.941406 16.09375 C 862.566406 15.714844 862.195312 15.339844 861.816406 14.964844 C 861.40625 14.554688 860.996094 14.144531 860.585938 13.734375 C 860.175781 13.320312 859.757812 12.902344 859.34375 12.488281 L 858.183594 11.328125 C 857.855469 11.003906 857.53125 10.679688 857.207031 10.351562 C 856.972656 10.117188 856.734375 9.882812 856.5 9.644531 C 856.390625 9.535156 856.28125 9.414062 856.167969 9.3125 C 856.160156 9.304688 856.15625 9.300781 856.152344 9.296875 L 856.152344 9.546875 C 856.226562 9.472656 856.304688 9.394531 856.378906 9.320312 C 856.585938 9.113281 856.796875 8.90625 857.003906 8.695312 C 857.308594 8.390625 857.617188 8.082031 857.921875 7.773438 C 858.300781 7.398438 858.675781 7.019531 859.054688 6.644531 C 859.464844 6.230469 859.875 5.820312 860.285156 5.410156 C 860.695312 5 861.113281 4.582031 861.527344 4.167969 C 861.914062 3.78125 862.300781 3.394531 862.6875 3.007812 C 863.011719 2.679688 863.339844 2.351562 863.667969 2.023438 C 863.902344 1.789062 864.136719 1.554688 864.371094 1.320312 C 864.484375 1.207031 864.601562 1.101562 864.707031 0.984375 C 864.710938 0.980469 864.714844 0.976562 864.722656 0.96875 L 864.59375 1.023438 C 864.816406 1.023438 865.039062 1.023438 865.261719 1.023438 C 865.800781 1.023438 866.339844 1.023438 866.875 1.027344 C 867.523438 1.027344 868.171875 1.027344 868.820312 1.03125 C 869.378906 1.03125 869.941406 1.03125 870.5 1.03125 L 871.054688 1.035156 C 871.140625 1.035156 871.234375 1.042969 871.320312 1.035156 C 871.324219 1.035156 871.328125 1.035156 871.332031 1.035156 L 871.207031 0.730469 C 871.128906 0.804688 871.050781 0.882812 870.976562 0.957031 C 870.769531 1.164062 870.558594 1.375 870.351562 1.582031 C 870.042969 1.886719 869.738281 2.195312 869.429688 2.503906 C 869.054688 2.878906 868.679688 3.253906 868.304688 3.628906 C 867.890625 4.039062 867.480469 4.449219 867.070312 4.859375 C 866.660156 5.273438 866.242188 5.691406 865.828125 6.105469 C 865.441406 6.492188 865.054688 6.878906 864.664062 7.265625 C 864.339844 7.589844 864.015625 7.917969 863.691406 8.242188 L 862.984375 8.949219 C 862.871094 9.058594 862.757812 9.167969 862.648438 9.28125 C 862.644531 9.289062 862.636719 9.292969 862.632812 9.296875 C 862.566406 9.367188 862.566406 9.480469 862.632812 9.550781 C 862.710938 9.625 862.785156 9.703125 862.863281 9.777344 L 863.484375 10.402344 C 863.792969 10.710938 864.101562 11.019531 864.40625 11.324219 C 864.78125 11.699219 865.160156 12.074219 865.53125 12.449219 C 865.945312 12.859375 866.355469 13.273438 866.765625 13.683594 C 867.175781 14.09375 867.59375 14.511719 868.011719 14.925781 C 868.398438 15.3125 868.785156 15.699219 869.171875 16.085938 L 870.144531 17.0625 L 870.851562 17.769531 C 870.964844 17.878906 871.070312 18 871.1875 18.105469 C 871.191406 18.109375 871.195312 18.113281 871.203125 18.121094 L 871.328125 17.8125 L 865.421875 17.8125 C 865.148438 17.8125 864.875 17.804688 864.601562 17.8125 C 864.597656 17.8125 864.59375 17.8125 864.589844 17.8125 C 864.359375 17.8125 864.359375 18.171875 864.589844 18.171875 L 870.496094 18.171875 C 870.769531 18.171875 871.042969 18.183594 871.316406 18.171875 C 871.320312 18.171875 871.324219 18.171875 871.328125 18.171875 C 871.484375 18.171875 871.566406 17.976562 871.453125 17.867188 C 871.378906 17.789062 871.300781 17.714844 871.226562 17.636719 C 871.019531 17.429688 870.808594 17.222656 870.601562 17.015625 C 870.296875 16.707031 869.988281 16.398438 869.679688 16.09375 L 868.554688 14.96875 C 868.144531 14.554688 867.734375 14.144531 867.324219 13.734375 L 866.078125 12.488281 C 865.691406 12.101562 865.304688 11.714844 864.917969 11.328125 C 864.59375 11.003906 864.265625 10.679688 863.941406 10.355469 C 863.707031 10.117188 863.472656 9.882812 863.234375 9.648438 C 863.125 9.535156 863.019531 9.417969 862.902344 9.3125 C 862.894531 9.308594 862.890625 9.304688 862.886719 9.296875 L 862.886719 9.550781 C 862.960938 9.472656 863.039062 9.398438 863.117188 9.320312 C 863.324219 9.113281 863.53125 8.90625 863.738281 8.699219 L 864.660156 7.777344 L 865.789062 6.652344 C 866.199219 6.238281 866.609375 5.828125 867.019531 5.417969 C 867.433594 5.007812 867.851562 4.589844 868.265625 4.175781 C 868.652344 3.789062 869.039062 3.402344 869.425781 3.015625 L 870.402344 2.039062 L 871.105469 1.332031 C 871.21875 1.21875 871.335938 1.109375 871.441406 0.996094 C 871.449219 0.992188 871.453125 0.988281 871.457031 0.980469 C 871.566406 0.871094 871.488281 0.675781 871.332031 0.675781 C 870.917969 0.675781 870.5 0.675781 870.085938 0.675781 C 869.21875 0.671875 868.351562 0.671875 867.484375 0.667969 C 866.710938 0.667969 865.933594 0.667969 865.160156 0.664062 C 864.984375 0.664062 864.804688 0.664062 864.628906 0.664062 C 864.527344 0.664062 864.472656 0.710938 864.40625 0.777344 C 864.125 1.0625 863.839844 1.34375 863.558594 1.625 L 862.003906 3.183594 C 861.367188 3.820312 860.734375 4.457031 860.097656 5.089844 C 859.46875 5.71875 858.839844 6.351562 858.210938 6.980469 C 857.710938 7.484375 857.207031 7.984375 856.703125 8.488281 C 856.449219 8.746094 856.191406 9.003906 855.933594 9.261719 C 855.921875 9.273438 855.910156 9.285156 855.898438 9.296875 C 855.832031 9.363281 855.832031 9.480469 855.898438 9.546875 C 855.976562 9.625 856.050781 9.699219 856.128906 9.777344 L 856.75 10.402344 C 857.058594 10.707031 857.367188 11.015625 857.671875 11.324219 C 858.046875 11.699219 858.421875 12.074219 858.796875 12.449219 C 859.207031 12.859375 859.617188 13.269531 860.03125 13.683594 C 860.441406 14.09375 860.859375 14.511719 861.273438 14.925781 C 861.660156 15.3125 862.046875 15.699219 862.433594 16.085938 L 863.410156 17.0625 L 864.113281 17.769531 C 864.226562 17.882812 864.335938 17.996094 864.449219 18.105469 C 864.453125 18.109375 864.460938 18.113281 864.464844 18.121094 C 864.628906 18.28125 864.878906 18.03125 864.71875 17.867188 Z M 864.71875 17.867188 "/></g><g clip-rule="nonzero" clip-path="url(#bb3c452718)"><path style=" stroke:none;fill-rule:nonzero;fill:#1f48ff;fill-opacity:1;" d="M 876.644531 17.996094 L 868.078125 9.421875 L 876.648438 0.84375 L 883.382812 0.855469 L 874.8125 9.425781 L 883.382812 17.996094 Z M 876.644531 17.996094 "/></g><g clip-rule="nonzero" clip-path="url(#bee0e8bbba)"><path style=" stroke:none;fill-rule:nonzero;fill:#1f48ff;fill-opacity:1;" d="M 876.769531 17.867188 C 876.691406 17.792969 876.617188 17.714844 876.539062 17.636719 L 874.996094 16.09375 L 873.871094 14.964844 C 873.460938 14.554688 873.050781 14.144531 872.636719 13.734375 L 871.394531 12.488281 C 871.007812 12.101562 870.621094 11.714844 870.234375 11.328125 C 869.910156 11.003906 869.585938 10.679688 869.257812 10.351562 C 869.023438 10.117188 868.789062 9.882812 868.554688 9.644531 C 868.441406 9.535156 868.335938 9.414062 868.21875 9.3125 C 868.214844 9.304688 868.210938 9.300781 868.203125 9.296875 L 868.203125 9.546875 C 868.28125 9.472656 868.355469 9.394531 868.433594 9.320312 L 869.054688 8.695312 C 869.363281 8.390625 869.667969 8.082031 869.976562 7.773438 L 871.105469 6.644531 L 872.335938 5.410156 C 872.75 4.996094 873.164062 4.582031 873.578125 4.167969 L 874.738281 3.007812 L 875.71875 2.023438 L 876.421875 1.320312 C 876.535156 1.207031 876.652344 1.101562 876.757812 0.984375 C 876.761719 0.980469 876.765625 0.976562 876.773438 0.96875 L 876.648438 1.023438 C 876.871094 1.023438 877.089844 1.023438 877.316406 1.023438 C 877.851562 1.023438 878.390625 1.023438 878.929688 1.027344 C 879.574219 1.027344 880.222656 1.027344 880.871094 1.03125 C 881.433594 1.03125 881.992188 1.03125 882.550781 1.03125 L 883.105469 1.035156 C 883.195312 1.035156 883.285156 1.042969 883.371094 1.035156 C 883.375 1.035156 883.378906 1.035156 883.382812 1.035156 L 883.257812 0.730469 C 883.179688 0.804688 883.105469 0.882812 883.027344 0.957031 L 881.480469 2.503906 C 881.105469 2.878906 880.730469 3.253906 880.355469 3.628906 C 879.945312 4.039062 879.535156 4.449219 879.121094 4.859375 C 878.710938 5.273438 878.292969 5.691406 877.878906 6.105469 L 876.71875 7.265625 C 876.394531 7.589844 876.066406 7.917969 875.742188 8.242188 C 875.507812 8.476562 875.269531 8.710938 875.035156 8.949219 C 874.925781 9.058594 874.808594 9.167969 874.699219 9.28125 C 874.695312 9.289062 874.691406 9.292969 874.683594 9.296875 C 874.617188 9.367188 874.617188 9.480469 874.683594 9.550781 C 874.761719 9.625 874.839844 9.703125 874.914062 9.777344 C 875.121094 9.988281 875.332031 10.195312 875.539062 10.402344 L 876.460938 11.324219 C 876.835938 11.699219 877.210938 12.074219 877.585938 12.449219 L 878.816406 13.683594 C 879.230469 14.097656 879.648438 14.511719 880.0625 14.925781 C 880.449219 15.3125 880.835938 15.699219 881.222656 16.085938 L 882.90625 17.769531 C 883.015625 17.878906 883.121094 18 883.238281 18.105469 C 883.246094 18.109375 883.25 18.113281 883.253906 18.121094 L 883.378906 17.8125 L 877.472656 17.8125 C 877.199219 17.8125 876.925781 17.804688 876.652344 17.8125 C 876.648438 17.8125 876.644531 17.8125 876.640625 17.8125 C 876.410156 17.8125 876.410156 18.171875 876.640625 18.171875 L 882.550781 18.171875 C 882.820312 18.171875 883.097656 18.183594 883.367188 18.171875 C 883.371094 18.171875 883.375 18.171875 883.378906 18.171875 C 883.535156 18.171875 883.617188 17.976562 883.507812 17.867188 C 883.429688 17.789062 883.355469 17.714844 883.277344 17.636719 L 882.65625 17.015625 L 881.730469 16.09375 L 880.605469 14.96875 C 880.195312 14.554688 879.785156 14.144531 879.375 13.734375 L 876.96875 11.328125 L 875.992188 10.355469 C 875.757812 10.117188 875.523438 9.882812 875.289062 9.648438 C 875.175781 9.535156 875.070312 9.417969 874.953125 9.3125 C 874.949219 9.308594 874.945312 9.304688 874.9375 9.296875 L 874.9375 9.550781 C 875.015625 9.472656 875.089844 9.398438 875.167969 9.320312 C 875.375 9.113281 875.582031 8.90625 875.792969 8.699219 C 876.097656 8.390625 876.40625 8.082031 876.714844 7.777344 C 877.089844 7.402344 877.464844 7.027344 877.839844 6.652344 C 878.25 6.238281 878.660156 5.828125 879.074219 5.417969 C 879.488281 5.003906 879.902344 4.589844 880.316406 4.175781 C 880.703125 3.789062 881.089844 3.402344 881.476562 3.015625 C 881.800781 2.6875 882.128906 2.363281 882.453125 2.039062 L 883.160156 1.332031 C 883.269531 1.21875 883.386719 1.109375 883.496094 0.996094 C 883.5 0.992188 883.503906 0.988281 883.511719 0.980469 C 883.621094 0.871094 883.539062 0.675781 883.382812 0.675781 C 882.96875 0.675781 882.554688 0.675781 882.136719 0.675781 C 881.273438 0.671875 880.402344 0.671875 879.535156 0.667969 C 878.761719 0.667969 877.984375 0.667969 877.210938 0.664062 C 877.035156 0.664062 876.859375 0.664062 876.683594 0.664062 C 876.582031 0.664062 876.523438 0.710938 876.457031 0.777344 C 876.175781 1.0625 875.894531 1.34375 875.613281 1.625 C 875.09375 2.144531 874.574219 2.664062 874.054688 3.183594 L 872.152344 5.089844 C 871.523438 5.71875 870.894531 6.351562 870.261719 6.980469 C 869.761719 7.484375 869.261719 7.984375 868.757812 8.488281 C 868.5 8.746094 868.242188 9.003906 867.984375 9.261719 L 867.953125 9.296875 C 867.882812 9.363281 867.882812 9.480469 867.953125 9.546875 C 868.027344 9.625 868.105469 9.699219 868.179688 9.777344 L 869.726562 11.324219 C 870.101562 11.699219 870.476562 12.074219 870.851562 12.449219 C 871.261719 12.859375 871.671875 13.269531 872.082031 13.683594 C 872.492188 14.09375 872.910156 14.511719 873.324219 14.925781 C 873.710938 15.3125 874.097656 15.699219 874.484375 16.085938 C 874.8125 16.414062 875.136719 16.738281 875.460938 17.0625 L 876.167969 17.769531 C 876.277344 17.882812 876.386719 17.996094 876.5 18.105469 C 876.507812 18.109375 876.511719 18.113281 876.515625 18.121094 C 876.679688 18.28125 876.933594 18.03125 876.769531 17.867188 Z M 876.769531 17.867188 "/></g><g clip-rule="nonzero" clip-path="url(#2115e143d1)"><path style=" stroke:none;fill-rule:nonzero;fill:#1f48ff;fill-opacity:1;" d="M 888.421875 17.996094 L 879.855469 9.421875 L 888.425781 0.84375 L 895.160156 0.855469 L 886.589844 9.425781 L 895.160156 17.996094 Z M 888.421875 17.996094 "/></g><g clip-rule="nonzero" clip-path="url(#64e92bd83f)"><path style=" stroke:none;fill-rule:nonzero;fill:#1f48ff;fill-opacity:1;" d="M 888.546875 17.867188 C 888.472656 17.792969 888.394531 17.714844 888.320312 17.636719 L 887.695312 17.015625 L 886.773438 16.09375 C 886.398438 15.714844 886.023438 15.339844 885.648438 14.964844 C 885.238281 14.554688 884.828125 14.144531 884.417969 13.734375 L 882.011719 11.328125 C 881.6875 11.003906 881.363281 10.679688 881.039062 10.351562 C 880.800781 10.117188 880.566406 9.882812 880.332031 9.644531 C 880.222656 9.535156 880.113281 9.414062 879.996094 9.3125 C 879.992188 9.304688 879.988281 9.300781 879.980469 9.296875 L 879.980469 9.546875 C 880.058594 9.472656 880.132812 9.394531 880.210938 9.320312 L 880.832031 8.695312 C 881.140625 8.390625 881.449219 8.082031 881.753906 7.773438 C 882.132812 7.398438 882.507812 7.019531 882.882812 6.644531 C 883.292969 6.230469 883.703125 5.820312 884.113281 5.410156 L 885.359375 4.167969 C 885.742188 3.78125 886.128906 3.394531 886.515625 3.007812 C 886.84375 2.679688 887.171875 2.351562 887.496094 2.023438 C 887.730469 1.789062 887.96875 1.554688 888.203125 1.320312 C 888.3125 1.207031 888.433594 1.101562 888.535156 0.984375 C 888.539062 0.980469 888.546875 0.976562 888.550781 0.96875 L 888.425781 1.023438 C 888.648438 1.023438 888.871094 1.023438 889.09375 1.023438 C 889.628906 1.023438 890.167969 1.023438 890.707031 1.027344 C 891.355469 1.027344 892 1.027344 892.648438 1.03125 C 893.210938 1.03125 893.769531 1.03125 894.332031 1.03125 L 894.886719 1.035156 C 894.972656 1.035156 895.0625 1.042969 895.148438 1.035156 C 895.152344 1.035156 895.15625 1.035156 895.160156 1.035156 L 895.035156 0.730469 C 894.957031 0.804688 894.882812 0.882812 894.804688 0.957031 C 894.597656 1.164062 894.390625 1.375 894.183594 1.582031 L 893.257812 2.503906 C 892.882812 2.878906 892.507812 3.253906 892.132812 3.628906 C 891.722656 4.039062 891.3125 4.449219 890.902344 4.859375 C 890.488281 5.273438 890.070312 5.691406 889.65625 6.105469 L 887.519531 8.242188 C 887.285156 8.476562 887.050781 8.710938 886.8125 8.949219 C 886.703125 9.058594 886.585938 9.167969 886.476562 9.28125 C 886.472656 9.289062 886.46875 9.292969 886.464844 9.296875 C 886.394531 9.367188 886.394531 9.480469 886.464844 9.550781 C 886.539062 9.625 886.617188 9.703125 886.691406 9.777344 L 887.316406 10.402344 C 887.621094 10.710938 887.929688 11.019531 888.238281 11.324219 C 888.613281 11.699219 888.988281 12.074219 889.363281 12.449219 L 890.59375 13.683594 L 891.839844 14.925781 C 892.226562 15.3125 892.613281 15.699219 893 16.085938 C 893.324219 16.414062 893.648438 16.738281 893.976562 17.0625 L 894.683594 17.769531 C 894.792969 17.882812 894.902344 18 895.019531 18.105469 C 895.023438 18.109375 895.027344 18.113281 895.035156 18.121094 L 895.160156 17.816406 L 889.253906 17.816406 C 888.980469 17.816406 888.707031 17.804688 888.433594 17.816406 C 888.429688 17.816406 888.425781 17.816406 888.421875 17.816406 C 888.191406 17.816406 888.191406 18.171875 888.421875 18.171875 L 894.328125 18.171875 C 894.601562 18.171875 894.875 18.183594 895.148438 18.171875 C 895.152344 18.171875 895.15625 18.171875 895.160156 18.171875 C 895.316406 18.171875 895.394531 17.976562 895.285156 17.867188 C 895.210938 17.792969 895.132812 17.714844 895.058594 17.640625 L 893.511719 16.09375 C 893.136719 15.71875 892.761719 15.34375 892.386719 14.96875 L 891.152344 13.734375 C 890.738281 13.320312 890.324219 12.90625 889.910156 12.492188 C 889.523438 12.105469 889.136719 11.71875 888.75 11.332031 C 888.425781 11.003906 888.097656 10.679688 887.773438 10.355469 L 887.066406 9.648438 C 886.957031 9.539062 886.847656 9.417969 886.734375 9.3125 C 886.726562 9.308594 886.722656 9.304688 886.71875 9.300781 L 886.71875 9.550781 C 886.792969 9.476562 886.871094 9.398438 886.945312 9.324219 L 888.492188 7.777344 C 888.867188 7.402344 889.242188 7.027344 889.621094 6.652344 C 890.03125 6.242188 890.441406 5.828125 890.851562 5.417969 L 892.097656 4.175781 C 892.484375 3.789062 892.871094 3.402344 893.257812 3.015625 C 893.582031 2.691406 893.90625 2.363281 894.234375 2.039062 C 894.46875 1.804688 894.703125 1.566406 894.9375 1.332031 C 895.050781 1.222656 895.167969 1.113281 895.273438 0.996094 C 895.28125 0.992188 895.285156 0.988281 895.289062 0.984375 C 895.398438 0.875 895.316406 0.675781 895.164062 0.675781 C 894.75 0.675781 894.332031 0.675781 893.917969 0.675781 C 893.050781 0.671875 892.183594 0.671875 891.316406 0.671875 C 890.542969 0.667969 889.765625 0.667969 888.992188 0.667969 C 888.8125 0.667969 888.636719 0.664062 888.460938 0.664062 C 888.359375 0.664062 888.304688 0.714844 888.238281 0.78125 L 887.390625 1.628906 C 886.871094 2.148438 886.355469 2.667969 885.835938 3.1875 C 885.199219 3.820312 884.566406 4.457031 883.929688 5.089844 C 883.300781 5.722656 882.671875 6.351562 882.042969 6.980469 C 881.542969 7.484375 881.039062 7.988281 880.539062 8.488281 C 880.28125 8.746094 880.023438 9.003906 879.765625 9.261719 C 879.753906 9.273438 879.742188 9.285156 879.730469 9.296875 C 879.664062 9.363281 879.664062 9.480469 879.730469 9.550781 C 879.808594 9.625 879.882812 9.703125 879.960938 9.777344 L 880.582031 10.402344 L 882.628906 12.449219 C 883.039062 12.863281 883.453125 13.273438 883.863281 13.683594 C 884.277344 14.097656 884.691406 14.511719 885.105469 14.929688 C 885.492188 15.316406 885.878906 15.703125 886.265625 16.089844 L 887.945312 17.769531 C 888.058594 17.882812 888.167969 17.996094 888.28125 18.105469 C 888.285156 18.109375 888.292969 18.117188 888.296875 18.121094 C 888.460938 18.285156 888.714844 18.03125 888.550781 17.867188 Z M 888.546875 17.867188 "/></g></g></g><g clip-rule="nonzero" clip-path="url(#3d8d416549)"><path style=" stroke:none;fill-rule:nonzero;fill:#1f48ff;fill-opacity:1;" d="M 464.511719 221.683594 C 452.550781 223.097656 451.402344 224.246094 449.988281 236.207031 C 448.574219 224.246094 447.425781 223.097656 435.460938 221.683594 C 447.425781 220.269531 448.574219 219.121094 449.988281 207.160156 C 451.402344 219.121094 452.550781 220.269531 464.511719 221.683594 Z M 464.511719 221.683594 "/><path style=" stroke:none;fill-rule:nonzero;fill:#1f48ff;fill-opacity:1;" d="M 464.511719 221.546875 C 462.539062 221.777344 460.558594 222.019531 458.613281 222.433594 C 457.269531 222.71875 455.910156 223.09375 454.703125 223.765625 C 453.71875 224.316406 452.886719 225.089844 452.28125 226.046875 C 451.574219 227.164062 451.167969 228.457031 450.867188 229.738281 C 450.429688 231.585938 450.183594 233.480469 449.949219 235.363281 C 449.917969 235.644531 449.882812 235.925781 449.847656 236.207031 L 450.125 236.207031 C 449.890625 234.234375 449.652344 232.253906 449.238281 230.308594 C 448.953125 228.964844 448.578125 227.605469 447.902344 226.398438 C 447.351562 225.414062 446.582031 224.582031 445.625 223.976562 C 444.507812 223.269531 443.214844 222.863281 441.933594 222.5625 C 440.085938 222.125 438.191406 221.878906 436.308594 221.644531 C 436.027344 221.613281 435.746094 221.578125 435.460938 221.542969 L 435.460938 221.820312 C 437.4375 221.585938 439.417969 221.347656 441.363281 220.933594 C 442.707031 220.648438 444.066406 220.273438 445.269531 219.597656 C 446.257812 219.046875 447.089844 218.277344 447.695312 217.320312 C 448.402344 216.203125 448.808594 214.910156 449.109375 213.628906 C 449.546875 211.78125 449.792969 209.886719 450.023438 208 C 450.058594 207.722656 450.09375 207.4375 450.125 207.15625 L 449.851562 207.15625 C 450.082031 209.132812 450.324219 211.113281 450.738281 213.058594 C 451.023438 214.402344 451.398438 215.761719 452.070312 216.964844 C 452.625 217.953125 453.394531 218.785156 454.351562 219.390625 C 455.46875 220.097656 456.761719 220.503906 458.042969 220.804688 C 459.890625 221.242188 461.785156 221.488281 463.667969 221.71875 C 463.949219 221.753906 464.230469 221.789062 464.511719 221.820312 C 464.691406 221.84375 464.6875 221.566406 464.511719 221.546875 C 462.5625 221.316406 460.609375 221.074219 458.6875 220.667969 C 457.375 220.386719 456.042969 220.027344 454.863281 219.371094 C 453.902344 218.839844 453.097656 218.09375 452.511719 217.164062 C 451.816406 216.0625 451.425781 214.792969 451.128906 213.53125 C 450.699219 211.714844 450.457031 209.851562 450.226562 208.003906 C 450.195312 207.722656 450.160156 207.441406 450.125 207.160156 C 450.105469 206.980469 449.871094 206.980469 449.851562 207.160156 C 449.621094 209.105469 449.382812 211.0625 448.972656 212.984375 C 448.691406 214.296875 448.332031 215.628906 447.675781 216.808594 C 447.144531 217.769531 446.398438 218.574219 445.46875 219.160156 C 444.367188 219.855469 443.097656 220.246094 441.835938 220.542969 C 440.019531 220.972656 438.160156 221.214844 436.308594 221.441406 C 436.027344 221.476562 435.746094 221.511719 435.464844 221.546875 C 435.285156 221.566406 435.285156 221.800781 435.464844 221.820312 C 437.414062 222.050781 439.367188 222.289062 441.289062 222.699219 C 442.601562 222.980469 443.933594 223.339844 445.113281 223.996094 C 446.074219 224.527344 446.878906 225.269531 447.464844 226.203125 C 448.160156 227.304688 448.550781 228.574219 448.847656 229.835938 C 449.277344 231.652344 449.519531 233.511719 449.746094 235.363281 C 449.78125 235.644531 449.816406 235.925781 449.851562 236.207031 C 449.871094 236.386719 450.105469 236.386719 450.125 236.207031 C 450.355469 234.257812 450.59375 232.304688 451.003906 230.382812 C 451.285156 229.070312 451.644531 227.738281 452.300781 226.558594 C 452.832031 225.597656 453.574219 224.792969 454.507812 224.207031 C 455.609375 223.511719 456.878906 223.121094 458.140625 222.820312 C 459.957031 222.394531 461.816406 222.152344 463.667969 221.921875 C 463.949219 221.890625 464.230469 221.855469 464.511719 221.820312 C 464.6875 221.800781 464.691406 221.523438 464.511719 221.546875 Z M 464.511719 221.546875 "/></g><g transform="matrix(1,0,0,1,88,221)"><g clip-path="url(#a4edc3f491)"><g style="fill:#1f48ff;fill-opacity:1;"><g transform="translate(1.032645, 157.103047)"><path style="stroke:none" d="M 126.75 0 C 120.625 0 114.921875 -1.34375 109.640625 -4.03125 C 104.359375 -6.726562 99.394531 -10.375 94.75 -14.96875 C 90.101562 -19.5625 85.613281 -24.84375 81.28125 -30.8125 C 76.945312 -36.78125 72.664062 -42.988281 68.4375 -49.4375 C 65.269531 -54.289062 62.050781 -59.039062 58.78125 -63.6875 C 55.507812 -68.332031 52.207031 -72.53125 48.875 -76.28125 C 45.550781 -80.03125 42.195312 -83.039062 38.8125 -85.3125 C 35.4375 -87.582031 32.003906 -88.71875 28.515625 -88.71875 L 28.515625 -110.90625 C 34.742188 -110.90625 40.5 -109.582031 45.78125 -106.9375 C 51.0625 -104.300781 56 -100.660156 60.59375 -96.015625 C 65.195312 -91.367188 69.660156 -86.113281 73.984375 -80.25 C 78.316406 -74.382812 82.597656 -68.175781 86.828125 -61.625 C 89.992188 -56.769531 93.210938 -51.992188 96.484375 -47.296875 C 99.765625 -42.597656 103.066406 -38.375 106.390625 -34.625 C 109.710938 -30.875 113.0625 -27.863281 116.4375 -25.59375 C 119.820312 -23.320312 123.257812 -22.1875 126.75 -22.1875 Z M 126.90625 -22.1875 L 126.90625 -110.90625 L 148.9375 -110.90625 L 148.9375 -22.1875 Z M 6.34375 0 L 6.34375 -88.71875 L 28.515625 -88.71875 L 28.515625 0 Z M 6.34375 0 "/></g></g><g style="fill:#1f48ff;fill-opacity:1;"><g transform="translate(199.69858, 157.103047)"><path style="stroke:none" d="M 126.75 0 L 126.75 -77.640625 C 126.75 -80.703125 125.640625 -83.3125 123.421875 -85.46875 C 121.203125 -87.632812 118.5625 -88.71875 115.5 -88.71875 L 28.359375 -88.71875 L 28.359375 -110.90625 L 115.5 -110.90625 C 121.625 -110.90625 127.222656 -109.398438 132.296875 -106.390625 C 137.367188 -103.378906 141.410156 -99.363281 144.421875 -94.34375 C 147.429688 -89.332031 148.9375 -83.765625 148.9375 -77.640625 L 148.9375 0 Z M 6.34375 0 L 6.34375 -88.71875 L 28.359375 -88.71875 L 28.359375 -55.453125 L 115.65625 -55.453125 L 115.65625 -33.265625 L 28.359375 -33.265625 L 28.359375 0 Z M 6.34375 0 "/></g></g><g style="fill:#1f48ff;fill-opacity:1;"><g transform="translate(398.364516, 157.103047)"><path style="stroke:none" d="M 6.34375 -22.1875 L 6.34375 -77.640625 C 6.34375 -83.765625 7.847656 -89.332031 10.859375 -94.34375 C 13.867188 -99.363281 17.878906 -103.378906 22.890625 -106.390625 C 27.910156 -109.398438 33.484375 -110.90625 39.609375 -110.90625 L 126.75 -110.90625 L 126.75 -88.71875 L 39.609375 -88.71875 C 36.546875 -88.71875 33.929688 -87.632812 31.765625 -85.46875 C 29.597656 -83.3125 28.515625 -80.703125 28.515625 -77.640625 L 28.515625 -22.1875 Z M 126.75 -66.546875 L 126.75 -88.71875 L 148.9375 -88.71875 L 148.9375 -66.546875 Z M 28.515625 0 L 28.515625 -22.1875 L 126.75 -22.1875 L 126.75 -33.265625 L 148.9375 -33.265625 L 148.9375 0 Z M 28.515625 0 "/></g></g><g style="fill:#1f48ff;fill-opacity:1;"><g transform="translate(597.030451, 157.103047)"><path style="stroke:none" d="M 126.75 -77.640625 C 126.75 -80.703125 125.664062 -83.3125 123.5 -85.46875 C 121.332031 -87.632812 118.71875 -88.71875 115.65625 -88.71875 L 28.515625 -88.71875 L 28.515625 -110.90625 L 115.65625 -110.90625 C 121.78125 -110.90625 127.351562 -109.398438 132.375 -106.390625 C 137.394531 -103.378906 141.410156 -99.363281 144.421875 -94.34375 C 147.429688 -89.332031 148.9375 -83.765625 148.9375 -77.640625 Z M 126.75 -22.1875 L 126.75 -33.265625 C 126.75 -36.328125 125.664062 -38.941406 123.5 -41.109375 C 121.332031 -43.273438 118.71875 -44.359375 115.65625 -44.359375 L 39.609375 -44.359375 C 33.585938 -44.359375 28.039062 -45.863281 22.96875 -48.875 C 17.90625 -51.882812 13.867188 -55.925781 10.859375 -61 C 7.847656 -66.070312 6.34375 -71.617188 6.34375 -77.640625 L 6.34375 -88.71875 L 28.515625 -88.71875 L 28.515625 -77.640625 C 28.515625 -74.578125 29.625 -71.960938 31.84375 -69.796875 C 34.0625 -67.628906 36.648438 -66.546875 39.609375 -66.546875 L 115.65625 -66.546875 C 121.78125 -66.546875 127.351562 -65.039062 132.375 -62.03125 C 137.394531 -59.019531 141.410156 -55.003906 144.421875 -49.984375 C 147.429688 -44.972656 148.9375 -39.398438 148.9375 -33.265625 L 148.9375 -22.1875 Z M 39.609375 0 C 33.585938 0 28.039062 -1.503906 22.96875 -4.515625 C 17.90625 -7.523438 13.867188 -11.5625 10.859375 -16.625 C 7.847656 -21.695312 6.34375 -27.242188 6.34375 -33.265625 L 28.515625 -33.265625 C 28.515625 -30.203125 29.625 -27.585938 31.84375 -25.421875 C 34.0625 -23.265625 36.648438 -22.1875 39.609375 -22.1875 L 126.75 -22.1875 L 126.75 0 Z M 39.609375 0 "/></g></g></g></g><g style="fill:#1f48ff;fill-opacity:1;"><g transform="translate(95.753007, 434.855881)"><path style="stroke:none" d="M 2.21875 -7.734375 L 2.21875 -27.09375 C 2.21875 -29.226562 2.738281 -31.171875 3.78125 -32.921875 C 4.832031 -34.679688 6.234375 -36.082031 7.984375 -37.125 C 9.734375 -38.175781 11.679688 -38.703125 13.828125 -38.703125 L 44.234375 -38.703125 L 44.234375 -30.96875 L 13.828125 -30.96875 C 12.753906 -30.96875 11.835938 -30.585938 11.078125 -29.828125 C 10.328125 -29.078125 9.953125 -28.164062 9.953125 -27.09375 L 9.953125 -7.734375 Z M 44.234375 -23.21875 L 44.234375 -30.96875 L 51.984375 -30.96875 L 51.984375 -23.21875 Z M 9.953125 0 L 9.953125 -7.734375 L 44.234375 -7.734375 L 44.234375 -11.609375 L 51.984375 -11.609375 L 51.984375 0 Z M 9.953125 0 "/></g></g><g style="fill:#1f48ff;fill-opacity:1;"><g transform="translate(179.29762, 434.855881)"><path style="stroke:none" d="M 44.234375 0 L 44.234375 -27.09375 C 44.234375 -28.164062 43.847656 -29.078125 43.078125 -29.828125 C 42.304688 -30.585938 41.382812 -30.96875 40.3125 -30.96875 L 9.890625 -30.96875 L 9.890625 -38.703125 L 40.3125 -38.703125 C 42.445312 -38.703125 44.398438 -38.175781 46.171875 -37.125 C 47.941406 -36.082031 49.351562 -34.679688 50.40625 -32.921875 C 51.457031 -31.171875 51.984375 -29.226562 51.984375 -27.09375 L 51.984375 0 Z M 2.21875 0 L 2.21875 -30.96875 L 9.890625 -30.96875 L 9.890625 -19.359375 L 40.359375 -19.359375 L 40.359375 -11.609375 L 9.890625 -11.609375 L 9.890625 0 Z M 2.21875 0 "/></g></g><g style="fill:#1f48ff;fill-opacity:1;"><g transform="translate(262.842232, 434.855881)"><path style="stroke:none" d="M 44.234375 0 L 44.234375 -7.734375 C 44.234375 -8.804688 43.851562 -9.71875 43.09375 -10.46875 C 42.34375 -11.226562 41.429688 -11.609375 40.359375 -11.609375 L 13.828125 -11.609375 L 13.828125 -19.359375 L 40.359375 -19.359375 C 41.429688 -19.359375 42.34375 -19.734375 43.09375 -20.484375 C 43.851562 -21.242188 44.234375 -22.15625 44.234375 -23.21875 L 44.234375 -27.09375 C 44.234375 -28.164062 43.851562 -29.078125 43.09375 -29.828125 C 42.34375 -30.585938 41.429688 -30.96875 40.359375 -30.96875 L 9.953125 -30.96875 L 9.953125 -38.703125 L 40.359375 -38.703125 C 42.503906 -38.703125 44.453125 -38.175781 46.203125 -37.125 C 47.953125 -36.082031 49.351562 -34.679688 50.40625 -32.921875 C 51.457031 -31.171875 51.984375 -29.226562 51.984375 -27.09375 L 51.984375 -23.21875 C 51.984375 -21.75 51.710938 -20.347656 51.171875 -19.015625 C 50.640625 -17.691406 49.914062 -16.515625 49 -15.484375 C 49.914062 -14.453125 50.640625 -13.28125 51.171875 -11.96875 C 51.710938 -10.664062 51.984375 -9.253906 51.984375 -7.734375 L 51.984375 0 Z M 2.21875 0 L 2.21875 -30.96875 L 9.953125 -30.96875 L 9.953125 0 Z M 2.21875 0 "/></g></g><g style="fill:#1f48ff;fill-opacity:1;"><g transform="translate(346.386855, 434.855881)"><path style="stroke:none" d=""/></g></g><g style="fill:#1f48ff;fill-opacity:1;"><g transform="translate(397.863662, 434.855881)"><path style="stroke:none" d="M 44.234375 0 L 44.234375 -7.734375 C 44.234375 -8.804688 43.851562 -9.71875 43.09375 -10.46875 C 42.34375 -11.226562 41.429688 -11.609375 40.359375 -11.609375 L 13.828125 -11.609375 L 13.828125 -19.359375 L 40.359375 -19.359375 C 41.429688 -19.359375 42.34375 -19.734375 43.09375 -20.484375 C 43.851562 -21.242188 44.234375 -22.15625 44.234375 -23.21875 L 44.234375 -27.09375 C 44.234375 -28.164062 43.851562 -29.078125 43.09375 -29.828125 C 42.34375 -30.585938 41.429688 -30.96875 40.359375 -30.96875 L 9.953125 -30.96875 L 9.953125 -38.703125 L 40.359375 -38.703125 C 42.503906 -38.703125 44.453125 -38.175781 46.203125 -37.125 C 47.953125 -36.082031 49.351562 -34.679688 50.40625 -32.921875 C 51.457031 -31.171875 51.984375 -29.226562 51.984375 -27.09375 L 51.984375 -23.21875 C 51.984375 -21.75 51.710938 -20.347656 51.171875 -19.015625 C 50.640625 -17.691406 49.914062 -16.515625 49 -15.484375 C 49.914062 -14.453125 50.640625 -13.28125 51.171875 -11.96875 C 51.710938 -10.664062 51.984375 -9.253906 51.984375 -7.734375 L 51.984375 0 Z M 2.21875 0 L 2.21875 -30.96875 L 9.953125 -30.96875 L 9.953125 0 Z M 2.21875 0 "/></g></g><g style="fill:#1f48ff;fill-opacity:1;"><g transform="translate(481.408308, 434.855881)"><path style="stroke:none" d="M 9.953125 -30.96875 L 9.953125 -38.703125 L 51.984375 -38.703125 L 51.984375 -30.96875 Z M 13.828125 0 C 11.722656 0 9.785156 -0.523438 8.015625 -1.578125 C 6.242188 -2.628906 4.832031 -4.035156 3.78125 -5.796875 C 2.738281 -7.566406 2.21875 -9.503906 2.21875 -11.609375 L 2.21875 -30.96875 L 9.953125 -30.96875 L 9.953125 -11.609375 C 9.953125 -10.546875 10.335938 -9.632812 11.109375 -8.875 C 11.890625 -8.113281 12.796875 -7.734375 13.828125 -7.734375 L 51.984375 -7.734375 L 51.984375 0 Z M 13.765625 -15.484375 L 13.765625 -23.21875 L 48.109375 -23.21875 L 48.109375 -15.484375 Z M 13.765625 -15.484375 "/></g></g><g style="fill:#1f48ff;fill-opacity:1;"><g transform="translate(564.952908, 434.855881)"><path style="stroke:none" d="M 44.234375 0 C 42.097656 0 40.109375 -0.46875 38.265625 -1.40625 C 36.421875 -2.34375 34.6875 -3.613281 33.0625 -5.21875 C 31.445312 -6.820312 29.878906 -8.664062 28.359375 -10.75 C 26.847656 -12.832031 25.359375 -15 23.890625 -17.25 C 22.785156 -18.945312 21.660156 -20.601562 20.515625 -22.21875 C 19.367188 -23.84375 18.210938 -25.3125 17.046875 -26.625 C 15.890625 -27.9375 14.722656 -28.988281 13.546875 -29.78125 C 12.367188 -30.570312 11.171875 -30.96875 9.953125 -30.96875 L 9.953125 -38.703125 C 12.128906 -38.703125 14.140625 -38.238281 15.984375 -37.3125 C 17.828125 -36.394531 19.550781 -35.125 21.15625 -33.5 C 22.757812 -31.882812 24.316406 -30.050781 25.828125 -28 C 27.335938 -25.957031 28.828125 -23.796875 30.296875 -21.515625 C 31.410156 -19.816406 32.535156 -18.144531 33.671875 -16.5 C 34.816406 -14.863281 35.96875 -13.390625 37.125 -12.078125 C 38.289062 -10.773438 39.460938 -9.722656 40.640625 -8.921875 C 41.816406 -8.128906 43.015625 -7.734375 44.234375 -7.734375 Z M 44.296875 -7.734375 L 44.296875 -38.703125 L 51.984375 -38.703125 L 51.984375 -7.734375 Z M 2.21875 0 L 2.21875 -30.96875 L 9.953125 -30.96875 L 9.953125 0 Z M 2.21875 0 "/></g></g><g style="fill:#1f48ff;fill-opacity:1;"><g transform="translate(648.497508, 434.855881)"><path style="stroke:none" d="M 23.28125 0 L 23.28125 -27.09375 C 23.28125 -28.164062 22.890625 -29.078125 22.109375 -29.828125 C 21.335938 -30.585938 20.421875 -30.96875 19.359375 -30.96875 L 2.21875 -30.96875 L 2.21875 -38.703125 L 19.359375 -38.703125 C 21.492188 -38.703125 23.4375 -38.175781 25.1875 -37.125 C 26.9375 -36.082031 28.335938 -34.679688 29.390625 -32.921875 C 30.441406 -31.171875 30.96875 -29.226562 30.96875 -27.09375 L 30.96875 0 Z M 30.96875 -30.96875 L 30.96875 -38.703125 L 51.984375 -38.703125 L 51.984375 -30.96875 Z M 30.96875 -30.96875 "/></g></g><g style="fill:#1f48ff;fill-opacity:1;"><g transform="translate(729.830516, 434.855881)"><path style="stroke:none" d="M 44.234375 0 L 44.234375 -27.09375 C 44.234375 -28.164062 43.847656 -29.078125 43.078125 -29.828125 C 42.304688 -30.585938 41.382812 -30.96875 40.3125 -30.96875 L 9.890625 -30.96875 L 9.890625 -38.703125 L 40.3125 -38.703125 C 42.445312 -38.703125 44.398438 -38.175781 46.171875 -37.125 C 47.941406 -36.082031 49.351562 -34.679688 50.40625 -32.921875 C 51.457031 -31.171875 51.984375 -29.226562 51.984375 -27.09375 L 51.984375 0 Z M 2.21875 0 L 2.21875 -30.96875 L 9.890625 -30.96875 L 9.890625 -19.359375 L 40.359375 -19.359375 L 40.359375 -11.609375 L 9.890625 -11.609375 L 9.890625 0 Z M 2.21875 0 "/></g></g><g style="fill:#1f48ff;fill-opacity:1;"><g transform="translate(813.375163, 434.855881)"><path style="stroke:none" d="M 13.828125 0 C 11.679688 0 9.734375 -0.523438 7.984375 -1.578125 C 6.234375 -2.628906 4.832031 -4.03125 3.78125 -5.78125 C 2.738281 -7.53125 2.21875 -9.472656 2.21875 -11.609375 L 2.21875 -38.703125 L 9.953125 -38.703125 L 9.953125 -11.609375 C 9.953125 -10.546875 10.328125 -9.632812 11.078125 -8.875 C 11.835938 -8.113281 12.753906 -7.734375 13.828125 -7.734375 L 48.65625 -7.734375 L 48.65625 0 Z M 13.828125 0 "/></g></g><g clip-rule="nonzero" clip-path="url(#8bbd9f69f5)"><path style=" stroke:none;fill-rule:nonzero;fill:#1f48ff;fill-opacity:1;" d="M 529.523438 221.683594 C 517.5625 223.097656 516.414062 224.246094 515 236.207031 C 513.582031 224.246094 512.4375 223.097656 500.472656 221.683594 C 512.4375 220.269531 513.582031 219.121094 515 207.160156 C 516.414062 219.121094 517.5625 220.269531 529.523438 221.683594 Z M 529.523438 221.683594 "/><path style=" stroke:none;fill-rule:nonzero;fill:#1f48ff;fill-opacity:1;" d="M 529.523438 221.546875 C 527.550781 221.777344 525.570312 222.019531 523.625 222.433594 C 522.28125 222.71875 520.921875 223.09375 519.714844 223.765625 C 518.730469 224.316406 517.898438 225.089844 517.292969 226.046875 C 516.585938 227.164062 516.179688 228.457031 515.878906 229.738281 C 515.441406 231.585938 515.195312 233.480469 514.960938 235.363281 C 514.929688 235.644531 514.894531 235.925781 514.859375 236.207031 L 515.136719 236.207031 C 514.902344 234.234375 514.664062 232.253906 514.25 230.308594 C 513.964844 228.964844 513.589844 227.605469 512.914062 226.398438 C 512.363281 225.414062 511.59375 224.582031 510.636719 223.976562 C 509.519531 223.269531 508.226562 222.863281 506.945312 222.5625 C 505.097656 222.125 503.203125 221.878906 501.316406 221.644531 C 501.039062 221.613281 500.753906 221.578125 500.472656 221.542969 L 500.472656 221.820312 C 502.449219 221.585938 504.429688 221.347656 506.375 220.933594 C 507.71875 220.648438 509.074219 220.273438 510.28125 219.597656 C 511.269531 219.046875 512.101562 218.277344 512.707031 217.320312 C 513.414062 216.203125 513.820312 214.910156 514.121094 213.628906 C 514.558594 211.78125 514.804688 209.886719 515.035156 208 C 515.070312 207.722656 515.105469 207.4375 515.136719 207.15625 L 514.863281 207.15625 C 515.09375 209.132812 515.335938 211.113281 515.75 213.058594 C 516.035156 214.402344 516.410156 215.761719 517.082031 216.964844 C 517.632812 217.953125 518.40625 218.785156 519.359375 219.390625 C 520.480469 220.097656 521.773438 220.503906 523.050781 220.804688 C 524.902344 221.242188 526.796875 221.488281 528.679688 221.71875 C 528.960938 221.753906 529.242188 221.789062 529.523438 221.820312 C 529.699219 221.84375 529.699219 221.566406 529.523438 221.546875 C 527.574219 221.316406 525.621094 221.074219 523.699219 220.667969 C 522.386719 220.386719 521.054688 220.027344 519.875 219.371094 C 518.914062 218.839844 518.109375 218.09375 517.523438 217.164062 C 516.828125 216.0625 516.4375 214.792969 516.136719 213.53125 C 515.710938 211.714844 515.46875 209.851562 515.238281 208.003906 C 515.207031 207.722656 515.171875 207.441406 515.136719 207.160156 C 515.117188 206.980469 514.882812 206.980469 514.863281 207.160156 C 514.632812 209.105469 514.390625 211.0625 513.984375 212.984375 C 513.703125 214.296875 513.34375 215.628906 512.6875 216.808594 C 512.15625 217.769531 511.410156 218.574219 510.480469 219.160156 C 509.378906 219.855469 508.109375 220.246094 506.847656 220.542969 C 505.027344 220.972656 503.167969 221.214844 501.320312 221.441406 C 501.039062 221.476562 500.757812 221.511719 500.476562 221.546875 C 500.296875 221.566406 500.296875 221.800781 500.476562 221.820312 C 502.421875 222.050781 504.378906 222.289062 506.300781 222.699219 C 507.613281 222.980469 508.945312 223.339844 510.125 223.996094 C 511.085938 224.527344 511.890625 225.269531 512.476562 226.203125 C 513.171875 227.304688 513.5625 228.574219 513.859375 229.835938 C 514.289062 231.652344 514.53125 233.511719 514.757812 235.363281 C 514.792969 235.644531 514.828125 235.925781 514.859375 236.207031 C 514.882812 236.386719 515.117188 236.386719 515.136719 236.207031 C 515.367188 234.257812 515.605469 232.304688 516.015625 230.382812 C 516.296875 229.070312 516.65625 227.738281 517.3125 226.558594 C 517.84375 225.597656 518.585938 224.792969 519.515625 224.207031 C 520.621094 223.511719 521.890625 223.121094 523.152344 222.820312 C 524.96875 222.394531 526.828125 222.152344 528.679688 221.921875 C 528.960938 221.890625 529.242188 221.855469 529.523438 221.820312 C 529.699219 221.800781 529.699219 221.523438 529.523438 221.546875 Z M 529.523438 221.546875 "/></g></g></svg>